<svg width="114" height="66" viewBox="0 0 114 66" fill="none" xmlns="http://www.w3.org/2000/svg">
<g clip-path="url(#clip0_16177_22315)">
<g clip-path="url(#clip1_16177_22315)">
<path d="M13.7201 10.68C2.7601 27.56 5.8801 51.16 22.6001 63.88C22.9201 64.2 23.0801 64.6 22.9201 64.84C22.7601 65.08 22.2801 65.08 21.9601 64.76C14.0266 58.4812 8.78998 49.4101 7.3201 39.4C5.8001 29.32 8.0401 19.08 13.7201 10.68ZM14.6001 58.2C12.2801 60.2 7.6401 58.52 5.3201 53.88C8.1201 52.52 11.8801 54.68 14.6001 58.2ZM17.0801 47.72C18.6001 50.84 18.6001 54.76 16.2801 56.84C13.5601 53.32 14.3601 49 17.0801 47.72ZM10.2801 51.24C7.6401 52.84 3.4801 50.28 2.1201 45.32C5.0801 44.6 8.2801 47.4 10.2801 51.24ZM14.8401 41.64C15.7201 45 14.9201 48.84 12.2001 50.28H12.1201C10.2001 46.36 11.8801 42.36 14.8401 41.64ZM7.4801 43.8C4.5201 44.76 1.0001 41.48 0.600098 36.36C3.6401 36.2 6.2801 39.64 7.4801 43.8ZM13.8001 35.32C14.0401 38.76 12.4401 42.28 9.4801 43.24V43.16C8.3601 39 10.6801 35.48 13.8001 35.32ZM0.840098 27.24C3.8801 27.8 5.8001 31.64 6.1201 35.88C3.0801 36.28 0.200098 32.36 0.840098 27.24ZM13.9601 28.92C13.4801 32.36 11.3201 35.4 8.2801 35.8L8.2001 35.72C7.9601 31.48 10.9201 28.44 13.9601 28.92ZM15.3201 22.68C14.2801 25.96 11.4801 28.52 8.4401 28.2C8.9201 23.96 12.4401 21.56 15.3201 22.68ZM2.7601 18.36C5.5601 19.48 6.7601 23.56 6.3601 27.72L6.2801 27.96H6.2001C3.2401 27.56 1.2401 23.4 2.6801 18.6L2.7601 18.36ZM17.8801 16.68C16.1201 19.72 13.0001 21.72 10.0401 20.84C11.3201 16.76 15.2401 15 17.8801 16.68ZM6.4401 9.96C9.0001 11.64 9.3201 16.04 8.0401 20.2C5.0801 19.32 3.8001 14.52 6.4401 9.96ZM21.6401 11.24C19.2401 13.96 15.7201 15.32 13.0001 13.88C15.1601 10.04 19.4801 9.08 21.6401 11.24ZM11.7201 2.28C13.9601 4.52 13.3201 9 11.1601 12.76C8.5201 11.32 8.2001 6.36 11.7201 2.28ZM22.9201 1C21.4801 4.76 18.4401 7.72 14.7601 9.16C14.7601 5.32 18.9201 1.08 22.9201 1Z" fill="#D1D5DA"/>
</g>
<g filter="url(#filter0_d_16177_22315)">
<path d="M45 0L69 0V66L57 58.0548L45 66L45 0Z" fill="white"/>
<mask id="mask0_16177_22315" style="mask-type:alpha" maskUnits="userSpaceOnUse" x="45" y="0" width="24" height="66">
<path d="M45 0L69 0V66L57 58.0548L45 66L45 0Z" fill="white"/>
</mask>
<g mask="url(#mask0_16177_22315)">
<rect x="45" width="8" height="66" fill="#E52E40"/>
<rect x="53" width="8" height="66" fill="#F6F8FA"/>
<rect x="61" width="8" height="66" fill="#0E6A8E"/>
</g>
<g filter="url(#filter1_ii_16177_22315)">
<path d="M56.9981 53.8751C70.8052 53.8751 81.9981 42.6822 81.9981 28.8751C81.9981 15.0679 70.8052 3.875 56.9981 3.875C43.1909 3.875 31.998 15.0679 31.998 28.8751C31.998 42.6822 43.1909 53.8751 56.9981 53.8751Z" fill="url(#paint0_linear_16177_22315)"/>
</g>
<g opacity="0.6" filter="url(#filter2_f_16177_22315)">
<path d="M73.8721 29.1878C73.8032 38.5083 66.1914 46.0082 56.8708 45.9393C47.5502 45.8704 40.0502 38.2587 40.1192 28.9382C40.1881 19.6177 47.7999 12.1178 57.1205 12.1867C66.4411 12.2556 73.9411 19.8673 73.8721 29.1878Z" stroke="white" stroke-width="0.624997"/>
</g>
<g filter="url(#filter3_i_16177_22315)">
<path fill-rule="evenodd" clip-rule="evenodd" d="M56.9968 12.625C48.0222 12.625 40.7468 19.9003 40.7468 28.8748C40.7468 37.8494 48.0222 45.1247 56.9968 45.1247C65.9715 45.1247 73.2468 37.8494 73.2468 28.8748C73.2468 19.9003 65.9715 12.625 56.9968 12.625ZM40.1218 28.8748C40.1218 19.5551 47.677 12 56.9968 12C66.3166 12 73.8718 19.5551 73.8718 28.8748C73.8718 38.1946 66.3166 45.7497 56.9968 45.7497C47.677 45.7497 40.1218 38.1946 40.1218 28.8748Z" fill="#96561C"/>
</g>
<g filter="url(#filter4_i_16177_22315)">
<path fill-rule="evenodd" clip-rule="evenodd" d="M82.6218 28.8751C82.6218 43.0274 71.1491 54.5001 56.9968 54.5001C42.8445 54.5001 31.3718 43.0274 31.3718 28.8751C31.3718 14.7227 42.8445 3.25 56.9968 3.25C71.1491 3.25 82.6218 14.7227 82.6218 28.8751ZM81.9968 28.8751C81.9968 42.6822 70.804 53.8751 56.9968 53.8751C43.1897 53.8751 31.9968 42.6822 31.9968 28.8751C31.9968 15.0679 43.1897 3.87499 56.9968 3.87499C70.804 3.87499 81.9968 15.0679 81.9968 28.8751Z" fill="#96561C"/>
</g>
<g filter="url(#filter5_i_16177_22315)">
<path d="M49.1228 36.0624V32.2424H46.8828V30.2824H49.1228V27.8424H46.8828V25.8825H49.1228V22.0625H51.2028V25.8825H53.6028V22.0625H55.6828V25.8825H57.9228V27.8424H55.6828V30.2824H57.9228V32.2424H55.6828V36.0624H53.6028V32.2424H51.2028V36.0624H49.1228ZM51.2028 30.2824H53.6028V27.8424H51.2028V30.2824Z" fill="#96561C"/>
<path d="M63.8986 36.0624V23.7425H63.5586L61.4586 28.3224H58.9986L61.9786 22.0625H66.2186V36.0624H63.8986Z" fill="#96561C"/>
</g>
<g filter="url(#filter6_i_16177_22315)">
<path d="M42.15 39.554L41.2107 40.5738C40.8912 40.9207 40.8284 41.4326 41.0544 41.8464L41.7191 43.0632L40.6993 42.1239C40.3524 41.8044 39.8406 41.7416 39.4267 41.9676L38.2099 42.6323L39.1493 41.6125C39.4687 41.2656 39.5316 40.7538 39.3055 40.3399L38.6408 39.1231L39.6606 40.0625C40.0075 40.3819 40.5194 40.4448 40.9332 40.2187L42.15 39.554Z" fill="#96561C"/>
</g>
<g filter="url(#filter7_i_16177_22315)">
<path d="M72.9117 38.6794L74.1285 39.3441C74.5423 39.5701 75.0542 39.5073 75.4011 39.1878L76.4209 38.2485L75.7562 39.4653C75.5301 39.8791 75.593 40.391 75.9125 40.7379L76.8518 41.7577L75.635 41.093C75.2212 40.8669 74.7093 40.9298 74.3624 41.2493L73.3426 42.1886L74.0073 40.9718C74.2333 40.558 74.1705 40.0461 73.851 39.6992L72.9117 38.6794Z" fill="#96561C"/>
</g>
<g filter="url(#filter8_i_16177_22315)">
<path d="M49.4784 47.8186C49.3565 48.0685 49.1857 48.2537 48.9661 48.3744C48.7485 48.496 48.4969 48.5495 48.2114 48.5349C47.926 48.5203 47.6225 48.4345 47.3009 48.2776C47.0879 48.1736 46.9041 48.0563 46.7496 47.9257C46.5951 47.7951 46.4718 47.657 46.3798 47.5114L46.5481 47.2698C46.5951 47.3503 46.6513 47.4269 46.7166 47.4995C46.7819 47.5721 46.8562 47.6384 46.9397 47.6983C47.0232 47.7583 47.1143 47.8123 47.2131 47.8606C47.3932 47.9485 47.5705 47.9906 47.7449 47.987C47.9203 47.9815 48.0822 47.9274 48.2307 47.8248C48.38 47.7202 48.5043 47.5662 48.6036 47.3629C48.7189 47.1265 48.7717 46.8981 48.7619 46.6774C48.754 46.4577 48.687 46.2583 48.5609 46.0793C48.4378 45.8993 48.2609 45.753 48.0304 45.6405L47.8038 45.5299L46.2014 48.813C46.1806 48.8556 46.1743 48.8981 46.1824 48.9404C46.1914 48.9808 46.2188 49.0181 46.2644 49.0524L46.5002 49.2106C46.5468 49.243 46.5746 49.2769 46.5836 49.3125C46.5935 49.3461 46.5876 49.3852 46.5659 49.4298C46.546 49.4704 46.5155 49.4963 46.4741 49.5073C46.4328 49.5183 46.3811 49.5087 46.3191 49.4784L44.8025 48.7382C44.7425 48.7089 44.7041 48.6745 44.6873 48.6352C44.6705 48.5958 44.6721 48.5558 44.6919 48.5151C44.7279 48.4415 44.7941 48.4115 44.8906 48.425L45.0703 48.4696C45.1263 48.4777 45.1725 48.4739 45.209 48.4581C45.2474 48.4433 45.277 48.4146 45.2978 48.372L46.8038 45.2864C46.8246 45.2438 46.829 45.2028 46.8171 45.1634C46.8071 45.1249 46.7817 45.0861 46.7408 45.047L46.5951 44.9327C46.5251 44.865 46.508 44.7943 46.5439 44.7207C46.5647 44.6781 46.5953 44.6522 46.6357 44.6432C46.6771 44.6322 46.7277 44.6413 46.7878 44.6706L48.1969 45.3584C48.6211 45.5654 48.9511 45.8057 49.187 46.0791C49.4239 46.3506 49.5659 46.6369 49.6131 46.9382C49.6632 47.2385 49.6183 47.5319 49.4784 47.8186Z" fill="#96561C"/>
<path d="M52.7787 49.7159C52.7497 49.8286 52.6947 49.908 52.6139 49.9539C52.5357 49.9983 52.435 50.0047 52.3119 49.973L50.3582 49.47L50.4211 49.2258L51.7047 49.5563C51.8112 49.5837 51.8768 49.5494 51.9015 49.4534C51.9724 49.1779 51.9758 48.9573 51.9116 48.7916C51.848 48.6239 51.7316 48.5183 51.5625 48.4748C51.4331 48.4414 51.3081 48.4516 51.1875 48.5051C51.0674 48.5565 50.9591 48.6488 50.8625 48.782C50.7685 48.9136 50.695 49.0827 50.6418 49.2893C50.5375 49.6942 50.5543 50.0224 50.6921 50.2738C50.8305 50.523 51.0562 50.688 51.3693 50.7686C51.553 50.8159 51.7241 50.821 51.8828 50.7839C52.0414 50.7469 52.1766 50.6715 52.2882 50.5578C52.3365 50.5257 52.374 50.5053 52.4008 50.4966C52.4275 50.4879 52.4523 50.4865 52.4753 50.4924C52.5087 50.501 52.5287 50.5229 52.5352 50.5579C52.5444 50.5915 52.5423 50.6299 52.5289 50.6732C52.4754 50.8463 52.3709 50.993 52.2153 51.1132C52.0603 51.2313 51.8721 51.3097 51.6507 51.3484C51.4298 51.3851 51.19 51.3701 50.9312 51.3034C50.6285 51.2255 50.3761 51.0949 50.1741 50.9116C49.9725 50.7261 49.8337 50.5046 49.7576 50.2468C49.6821 49.987 49.683 49.7068 49.7604 49.4063C49.842 49.089 49.9769 48.8244 50.165 48.6124C50.3552 48.401 50.586 48.2568 50.8573 48.1797C51.1312 48.1011 51.4321 48.104 51.7598 48.1884C52.0395 48.2604 52.2653 48.373 52.4373 48.5263C52.6098 48.6776 52.724 48.8561 52.7801 49.062C52.8388 49.2662 52.8383 49.4842 52.7787 49.7159Z" fill="#96561C"/>
<path d="M56.5677 50.1129C56.5588 50.2289 56.5186 50.3166 56.447 50.376C56.3778 50.4334 56.2798 50.4572 56.153 50.4475L54.1415 50.2936L54.1607 50.0421L55.4824 50.1433C55.592 50.1517 55.6505 50.1064 55.6581 50.0076C55.6798 49.7239 55.6446 49.5061 55.5525 49.3543C55.4605 49.2002 55.3275 49.1166 55.1534 49.1032C55.0202 49.093 54.8989 49.1248 54.7894 49.1986C54.6802 49.2702 54.5897 49.38 54.5178 49.528C54.4483 49.674 54.4054 49.8534 54.3891 50.0661C54.3572 50.483 54.431 50.8032 54.6106 51.0266C54.7904 51.2479 55.0415 51.3709 55.3638 51.3955C55.5529 51.41 55.7224 51.3851 55.8721 51.3209C56.0219 51.2567 56.1417 51.1589 56.2318 51.0275C56.2738 50.9874 56.3071 50.9608 56.3319 50.9476C56.3567 50.9344 56.3809 50.9286 56.4046 50.9304C56.439 50.9331 56.4624 50.9511 56.475 50.9845C56.4899 51.0159 56.4946 51.0541 56.4889 51.099C56.4665 51.2789 56.3892 51.4416 56.2571 51.5871C56.125 51.7305 55.9534 51.8405 55.7422 51.9173C55.5311 51.992 55.2923 52.0191 55.0258 51.9987C54.7142 51.9748 54.4429 51.8903 54.212 51.7451C53.9811 51.5977 53.8057 51.4038 53.6858 51.1633C53.566 50.9207 53.518 50.6447 53.5417 50.3352C53.5667 50.0086 53.6533 49.7245 53.8014 49.4829C53.9518 49.2415 54.1538 49.0592 54.4075 48.9359C54.6635 48.8107 54.9602 48.761 55.2976 48.7868C55.5856 48.8088 55.8276 48.8803 56.0237 49.0012C56.22 49.12 56.3637 49.2758 56.4548 49.4687C56.5483 49.6596 56.5859 49.8743 56.5677 50.1129Z" fill="#96561C"/>
<path d="M58.5587 50.2238C58.5319 49.9103 58.5536 49.6445 58.6236 49.4265C58.6957 49.2062 58.7992 49.0373 58.9341 48.9198C59.0688 48.8002 59.2188 48.7333 59.3842 48.7192C59.5904 48.7016 59.7543 48.7471 59.8761 48.8556C59.9976 48.9621 60.0678 49.1248 60.0865 49.3439C60.1028 49.535 60.0753 49.6823 60.0041 49.7857C59.9327 49.887 59.8337 49.943 59.707 49.9538C59.5781 49.9648 59.4764 49.9389 59.4018 49.876C59.3294 49.813 59.2879 49.7203 59.2775 49.5979L59.2673 49.4787C59.2616 49.4121 59.2413 49.3641 59.2063 49.3346C59.1733 49.3028 59.1236 49.2898 59.057 49.2954C58.9797 49.302 58.9082 49.3395 58.8427 49.4078C58.7791 49.4738 58.7312 49.572 58.6991 49.7024C58.667 49.8328 58.6593 49.9967 58.6762 50.1943L58.5587 50.2238ZM58.5208 49.02L58.6374 49.7401L58.779 51.399C58.7841 51.4592 58.7998 51.5033 58.826 51.5313C58.852 51.5572 58.8988 51.5727 58.9662 51.5778L59.2439 51.5995C59.2962 51.6037 59.3351 51.6166 59.3608 51.6382C59.3886 51.6596 59.4042 51.6907 59.4077 51.7315C59.4113 51.7745 59.3982 51.8102 59.3681 51.8387C59.3401 51.8649 59.296 51.8806 59.2359 51.8857L57.7315 52.0141C57.6693 52.0194 57.6232 52.0114 57.5932 51.9902C57.5631 51.9668 57.5463 51.9347 57.5428 51.8939C57.5401 51.8617 57.5474 51.833 57.5647 51.8077C57.582 51.7824 57.6105 51.7616 57.6502 51.7452L57.7728 51.6991C57.8104 51.6829 57.8375 51.6589 57.8543 51.6272C57.8709 51.5934 57.8763 51.5431 57.8706 51.4766L57.7145 49.6469C57.7097 49.5911 57.6977 49.5521 57.6785 49.5299C57.6593 49.5078 57.6301 49.4951 57.5909 49.492L57.422 49.4901C57.3805 49.485 57.3503 49.4736 57.3315 49.4557C57.3127 49.4378 57.302 49.4139 57.2994 49.3838C57.2963 49.3473 57.3045 49.3174 57.3242 49.2941C57.3458 49.2684 57.3836 49.2425 57.4376 49.2163L57.9993 48.9542C58.1032 48.9042 58.1793 48.8707 58.2276 48.8536C58.278 48.8363 58.3172 48.8265 58.3451 48.8241C58.3923 48.82 58.4291 48.8331 58.4555 48.8633C58.484 48.8933 58.5058 48.9456 58.5208 49.02Z" fill="#96561C"/>
<path d="M61.4412 46.8695L62.3003 50.8514C62.3144 50.9167 62.3333 50.9634 62.357 50.9914C62.3823 51.0168 62.4153 51.0317 62.4559 51.0361L62.5828 51.0418C62.6261 51.048 62.6596 51.0605 62.6836 51.0796C62.7092 51.0962 62.7257 51.1213 62.7329 51.155C62.7416 51.195 62.7339 51.2308 62.7098 51.2625C62.6874 51.2916 62.6457 51.3127 62.5846 51.3259L61.3395 51.5945C61.2784 51.6077 61.2316 51.6057 61.1992 51.5884C61.1664 51.569 61.1456 51.5393 61.137 51.4993C61.1302 51.4677 61.1338 51.4383 61.1477 51.411C61.1617 51.3837 61.1873 51.3595 61.2246 51.3382L61.3404 51.2768C61.3756 51.256 61.3995 51.2288 61.4121 51.1952C61.4242 51.1595 61.4232 51.109 61.4091 51.0437L60.6659 47.599C60.6541 47.5442 60.6373 47.5071 60.6154 47.4876C60.5931 47.4659 60.5634 47.4558 60.5262 47.4572L60.356 47.4807C60.3162 47.4804 60.2848 47.4729 60.2618 47.458C60.2408 47.4427 60.2269 47.4192 60.2201 47.3876C60.2128 47.3539 60.2175 47.3243 60.234 47.2986C60.2501 47.2709 60.2843 47.2404 60.3366 47.207L60.8749 46.866C60.9502 46.8167 61.0108 46.7805 61.0565 46.7574C61.1043 46.7338 61.1462 46.7182 61.182 46.7105C61.2536 46.695 61.3114 46.7024 61.3554 46.7326C61.3994 46.7628 61.428 46.8084 61.4412 46.8695Z" fill="#96561C"/>
<path d="M63.7569 47.9435L64.4881 50.2214C64.5086 50.285 64.5319 50.3295 64.5582 50.355C64.5859 50.3778 64.6202 50.3895 64.6611 50.3899L64.788 50.3832C64.8316 50.385 64.8662 50.3943 64.8919 50.4109C64.919 50.4248 64.9379 50.4482 64.9484 50.481C64.9609 50.52 64.9568 50.5565 64.936 50.5903C64.9165 50.6214 64.8771 50.6466 64.8175 50.6657L63.6047 51.055C63.5452 51.0741 63.4985 51.0767 63.4646 51.0627C63.43 51.0466 63.4064 51.0191 63.3939 50.9801C63.384 50.9493 63.3847 50.9197 63.3959 50.8912C63.4071 50.8627 63.4303 50.836 63.4653 50.8112L63.5745 50.7388C63.6075 50.7146 63.6286 50.6852 63.6378 50.6505C63.6464 50.6138 63.6405 50.5637 63.6201 50.5L63.0568 48.7454C63.0397 48.6921 63.0193 48.6567 62.9956 48.6394C62.9713 48.6201 62.9397 48.6133 62.9007 48.619L62.7367 48.658C62.6951 48.6624 62.6631 48.6579 62.6408 48.6447C62.6184 48.6315 62.6023 48.6095 62.5924 48.5787C62.5819 48.5459 62.5836 48.5159 62.5975 48.4888C62.6108 48.4597 62.6418 48.4259 62.6906 48.3876L63.1929 47.9955C63.2631 47.939 63.3198 47.897 63.363 47.8696C63.4083 47.8414 63.4484 47.8218 63.4833 47.8106C63.5531 47.7882 63.6113 47.7898 63.6581 47.8156C63.7048 47.8413 63.7377 47.8839 63.7569 47.9435ZM63.0366 47.4345C62.8724 47.4872 62.7265 47.4876 62.599 47.4357C62.4728 47.3812 62.3876 47.2851 62.3435 47.1476C62.2994 47.0102 62.3134 46.8845 62.3855 46.7708C62.4591 46.6544 62.5779 46.5699 62.7421 46.5172C62.9083 46.4638 63.0552 46.463 63.1828 46.5149C63.3097 46.5647 63.3952 46.6583 63.4394 46.7958C63.4835 46.9333 63.4691 47.0613 63.3962 47.1798C63.3227 47.2962 63.2028 47.3811 63.0366 47.4345Z" fill="#96561C"/>
<path d="M65.6886 47.2433C65.5537 47.3059 65.464 47.3892 65.4196 47.493C65.3761 47.5939 65.3785 47.6962 65.4266 47.7998C65.4557 47.8624 65.4961 47.9137 65.548 47.9538C65.6018 47.9929 65.6788 48.0154 65.7789 48.0212C65.8791 48.027 66.0145 48.0116 66.1853 47.9751C66.5173 47.8969 66.7872 47.8666 66.995 47.8842C67.2047 47.9008 67.3705 47.9557 67.4922 48.0489C67.613 48.1402 67.7088 48.262 67.7796 48.4145C67.9058 48.6862 67.9098 48.9481 67.7916 49.2003C67.6745 49.4495 67.4322 49.6595 67.0647 49.8302C66.9357 49.8901 66.8237 49.9278 66.7287 49.9434C66.6366 49.9601 66.5592 49.9699 66.4965 49.9729C66.4337 49.9759 66.3818 49.9869 66.3407 50.006C66.2997 50.0251 66.2714 50.0512 66.256 50.0845C66.2406 50.1179 66.2261 50.1507 66.2127 50.1831C66.2001 50.2175 66.1743 50.2437 66.1352 50.2619C66.1 50.2782 66.0676 50.2802 66.0381 50.2677C66.0114 50.2564 65.9785 50.2289 65.9392 50.1853L65.4747 49.6917C65.4186 49.6322 65.3854 49.5787 65.3752 49.5312C65.3641 49.4817 65.3759 49.4381 65.4108 49.4006C65.4476 49.3621 65.4867 49.344 65.5281 49.3461C65.5705 49.3454 65.6173 49.3617 65.6684 49.395C65.8263 49.5047 65.9754 49.5827 66.1158 49.6292C66.2573 49.6728 66.3923 49.6897 66.5208 49.68C66.6513 49.6693 66.7752 49.6367 66.8925 49.5822C67.0606 49.5041 67.1698 49.4118 67.2201 49.3053C67.2724 49.1978 67.2722 49.0874 67.2196 48.974C67.1878 48.9056 67.1416 48.8522 67.081 48.8138C67.0204 48.7754 66.9313 48.755 66.8137 48.7526C66.6962 48.7501 66.5369 48.7706 66.3361 48.814C66.0565 48.8773 65.8215 48.9009 65.6311 48.8848C65.4426 48.8678 65.2865 48.8131 65.1628 48.7208C65.0402 48.6257 64.9412 48.497 64.8659 48.3347C64.7869 48.1647 64.7619 47.9957 64.7908 47.8278C64.8189 47.6579 64.8947 47.5015 65.0184 47.3585C65.1412 47.2135 65.3062 47.0929 65.5134 46.9967C65.6464 46.9349 65.7583 46.8972 65.8494 46.8834C65.9424 46.8688 66.0202 46.8623 66.0828 46.8641C66.1445 46.864 66.1979 46.8535 66.2428 46.8326C66.2897 46.8108 66.3214 46.7818 66.3379 46.7456C66.3535 46.7075 66.3685 46.6708 66.383 46.6356C66.3975 46.6003 66.4234 46.5741 66.4605 46.5568C66.4898 46.5432 66.5193 46.5426 66.5488 46.555C66.5803 46.5665 66.6127 46.5954 66.6461 46.6417L67.0485 47.1321C67.0978 47.1972 67.1284 47.253 67.1406 47.2997C67.1518 47.3443 67.1391 47.3859 67.1023 47.4244C67.0655 47.4629 67.0255 47.4791 66.9823 47.473C66.9391 47.4669 66.8871 47.4447 66.8265 47.4063C66.6111 47.2545 66.4061 47.1714 66.2118 47.1571C66.0193 47.1419 65.8449 47.1707 65.6886 47.2433Z" fill="#96561C"/>
<path d="M67.5296 46.4254L67.3818 46.4705C67.3271 46.4851 67.2849 46.4892 67.2551 46.4827C67.226 46.4733 67.2027 46.4549 67.1852 46.4277C67.1619 46.3915 67.1562 46.3567 67.1681 46.3234C67.1807 46.2872 67.2078 46.2556 67.2495 46.2288L67.4154 46.1222C67.4589 46.0942 67.4899 46.0627 67.5084 46.0278C67.5288 45.9916 67.5403 45.9419 67.5432 45.8786L67.5684 45.2781C67.575 45.2047 67.5885 45.1461 67.609 45.1022C67.6313 45.0571 67.6605 45.0229 67.6968 44.9996C67.7349 44.9751 67.7729 44.9686 67.811 44.98C67.8479 44.9895 67.881 45.017 67.9101 45.0623L69.405 47.3874C69.4866 47.5143 69.5734 47.5956 69.6655 47.6312C69.7575 47.6668 69.8489 47.6555 69.9396 47.5972C70.0066 47.5541 70.0496 47.5073 70.0683 47.4568C70.0889 47.4051 70.099 47.355 70.0986 47.3066C70.0982 47.2582 70.0999 47.2148 70.1035 47.1766C70.1078 47.1355 70.1262 47.1044 70.1588 47.0834C70.186 47.0659 70.2136 47.061 70.2416 47.0686C70.2696 47.0763 70.2975 47.1018 70.3255 47.1454C70.3901 47.2499 70.4175 47.3681 70.4075 47.5001C70.3993 47.6308 70.3535 47.7628 70.27 47.8959C70.1871 48.0261 70.0704 48.1395 69.92 48.2363C69.6879 48.3855 69.4684 48.4446 69.2615 48.4137C69.0534 48.3809 68.873 48.2458 68.7203 48.0083L67.7586 46.5126C67.7283 46.4655 67.6956 46.4365 67.6605 46.4258C67.6273 46.4139 67.5836 46.4137 67.5296 46.4254ZM68.1178 46.0549L67.943 45.783L68.8458 45.2025C68.8893 45.1746 68.9287 45.1621 68.9639 45.165C68.998 45.1662 69.0255 45.1831 69.0465 45.2157C69.0779 45.2647 69.0806 45.3206 69.0544 45.3836C69.0283 45.4465 68.9617 45.5124 68.8548 45.5811L68.1178 46.0549Z" fill="#96561C"/>
</g>
<g filter="url(#filter9_i_16177_22315)">
<path d="M39.3062 35.0286L35.0562 36.0536L34.6499 34.3661C34.5874 34.1098 34.5812 33.8598 34.6374 33.6348C34.6937 33.4036 34.7999 33.2098 34.9562 33.0473C35.1187 32.8848 35.3312 32.7723 35.5937 32.7098L35.6749 32.6911C35.9374 32.6286 36.1812 32.6348 36.3999 32.7098C36.6187 32.7848 36.8062 32.9098 36.9562 33.0848C37.1062 33.266 37.2124 33.4786 37.2749 33.7348L37.5249 34.7661L39.1562 34.3723L39.3124 35.0286H39.3062ZM36.9187 34.9098L36.6874 33.9411C36.6312 33.7098 36.5249 33.5411 36.3687 33.4348C36.2124 33.3286 36.0312 33.2973 35.8187 33.3473L35.7562 33.3598C35.5437 33.4098 35.3874 33.5223 35.2999 33.6848C35.2124 33.8473 35.1937 34.0536 35.2499 34.2848L35.4812 35.2473L36.9062 34.9036L36.9187 34.9098Z" fill="#96561C"/>
</g>
<g filter="url(#filter10_i_16177_22315)">
<path d="M38.4814 31.11L34.1064 31.185L34.0752 29.3475C34.0752 29.0787 34.1127 28.835 34.2064 28.6287C34.2939 28.4225 34.4314 28.26 34.6002 28.1412C34.7752 28.0225 34.9814 27.96 35.2252 27.96H35.2939C35.5689 27.96 35.7877 28.0162 35.9564 28.1475C36.1252 28.2787 36.2439 28.435 36.3127 28.6225H36.4127C36.4127 28.46 36.4689 28.335 36.5627 28.235C36.6564 28.135 36.8002 28.085 36.9814 28.085L38.4314 28.06L38.4439 28.7412L37.0877 28.7662C36.9752 28.7662 36.8877 28.7975 36.8189 28.86C36.7502 28.9162 36.7189 29.0162 36.7252 29.1412L36.7502 30.4725L38.4752 30.4412L38.4877 31.1162L38.4814 31.11ZM36.1314 30.4725L36.1127 29.385C36.1127 29.1412 36.0439 28.96 35.9189 28.8287C35.7939 28.6975 35.6252 28.635 35.4127 28.635H35.3627C35.1502 28.635 34.9814 28.71 34.8627 28.8412C34.7439 28.9725 34.6814 29.1662 34.6877 29.41L34.7064 30.4975L36.1314 30.4725Z" fill="#96561C"/>
</g>
<g filter="url(#filter11_i_16177_22315)">
<path d="M38.9628 25.3228C38.8503 25.8478 38.6128 26.2353 38.2503 26.479C37.8878 26.7228 37.4316 26.7853 36.8691 26.6665L35.8691 26.454C35.3128 26.3353 34.9191 26.0853 34.6878 25.7165C34.4566 25.3415 34.4003 24.8915 34.5128 24.3665C34.6253 23.8415 34.8628 23.454 35.2253 23.204C35.5878 22.954 36.0503 22.8915 36.6066 23.0103L37.6066 23.2228C38.1628 23.3415 38.5566 23.5915 38.7878 23.9665C39.0191 24.3415 39.0753 24.7915 38.9628 25.3165V25.3228ZM38.3691 25.1915C38.4441 24.854 38.4003 24.5728 38.2378 24.3478C38.0816 24.1228 37.8316 23.9728 37.4878 23.8978L36.4378 23.6728C36.0941 23.5978 35.8066 23.6353 35.5691 23.7728C35.3316 23.9103 35.1753 24.154 35.1066 24.4915C35.0378 24.8228 35.0816 25.0978 35.2378 25.329C35.3941 25.5603 35.6441 25.7103 35.9878 25.7853L37.0378 26.0103C37.3816 26.0853 37.6691 26.0478 37.9066 25.904C38.1441 25.7603 38.3003 25.5228 38.3691 25.1915Z" fill="#96561C"/>
</g>
<g filter="url(#filter12_i_16177_22315)">
<path d="M40.2067 21.5348C40.0192 21.9285 39.763 22.1973 39.4317 22.3285C39.1005 22.4598 38.7317 22.4285 38.3317 22.241L37.9942 22.0848L38.2817 21.4723L38.6192 21.6285C38.8317 21.7285 39.0255 21.7473 39.2067 21.691C39.388 21.6348 39.5255 21.4973 39.6317 21.2785C39.7317 21.066 39.7442 20.8785 39.663 20.7223C39.588 20.5598 39.438 20.4348 39.2255 20.3285L37.0067 19.291L36.6817 19.9848L36.1255 19.7223L36.938 17.9785L37.4942 18.2348L37.288 18.6785L39.5067 19.716C39.9192 19.9098 40.1817 20.1598 40.3005 20.4785C40.4192 20.791 40.388 21.1473 40.2005 21.5348H40.2067Z" fill="#96561C"/>
</g>
<g filter="url(#filter13_i_16177_22315)">
<path d="M41.4442 19.0041L37.9504 16.3729L39.6067 14.1729L40.0942 14.5416L38.8442 16.2041L39.8442 16.9604L40.9942 15.4354L41.4817 15.8041L40.3317 17.3229L41.3567 18.0916L42.6254 16.4041L43.1129 16.7729L41.4379 18.9979L41.4442 19.0041Z" fill="#96561C"/>
</g>
<g filter="url(#filter14_i_16177_22315)">
<path d="M45.069 15.0724C44.6628 15.4224 44.244 15.5849 43.8128 15.5599C43.3815 15.5349 42.9753 15.3036 42.6003 14.8724L41.9315 14.0974C41.5565 13.6661 41.394 13.2349 41.4315 12.7974C41.469 12.3661 41.694 11.9724 42.1003 11.6286C42.5003 11.2849 42.9003 11.1349 43.3065 11.1661C43.7128 11.2036 44.0815 11.4099 44.4128 11.7911L44.4378 11.8224L43.9315 12.2599L43.894 12.2161C43.7003 11.9911 43.4815 11.8599 43.2378 11.8224C42.994 11.7849 42.744 11.8724 42.494 12.0911C42.244 12.3099 42.1128 12.5536 42.1003 12.8286C42.0878 13.1036 42.2003 13.3786 42.4378 13.6474L43.1253 14.4411C43.3565 14.7099 43.6065 14.8599 43.8878 14.8911C44.1628 14.9224 44.4253 14.8286 44.6815 14.6099C44.9315 14.3974 45.0565 14.1661 45.0503 13.9161C45.0503 13.6661 44.9503 13.4349 44.7628 13.2099L44.694 13.1286L45.2003 12.6911L45.2565 12.7599C45.5878 13.1411 45.7378 13.5349 45.7128 13.9411C45.6878 14.3474 45.4753 14.7224 45.0753 15.0661L45.069 15.0724Z" fill="#96561C"/>
</g>
<g filter="url(#filter15_i_16177_22315)">
<path d="M47.9503 12.941L46.1503 9.63477L44.969 10.2785L44.6753 9.74102L47.6253 8.13477L47.919 8.67227L46.7378 9.31602L48.5378 12.6223L47.944 12.9473L47.9503 12.941Z" fill="#96561C"/>
</g>
<g filter="url(#filter16_i_16177_22315)">
<path d="M53.8754 10.8854C53.3441 10.9791 52.9004 10.9104 52.5316 10.6666C52.1629 10.4291 51.9316 10.0229 51.8316 9.46664L51.6504 8.46039C51.5504 7.89789 51.6254 7.44164 51.8816 7.08539C52.1379 6.72914 52.5316 6.50414 53.0629 6.41039C53.5941 6.31664 54.0379 6.38539 54.4066 6.62914C54.7754 6.86664 55.0066 7.27289 55.1129 7.82914L55.2941 8.83539C55.3941 9.39789 55.3191 9.85414 55.0566 10.2104C54.7941 10.5666 54.4004 10.7916 53.8754 10.8854ZM53.7691 10.2854C54.1066 10.2229 54.3504 10.0791 54.5004 9.84164C54.6504 9.61039 54.6941 9.32289 54.6316 8.97914L54.4379 7.92289C54.3754 7.57914 54.2316 7.32289 54.0129 7.16039C53.7941 6.99789 53.5129 6.94164 53.1691 7.00414C52.8379 7.06664 52.5941 7.21039 52.4441 7.44789C52.2941 7.67914 52.2441 7.96664 52.3066 8.31664L52.5004 9.37289C52.5629 9.71664 52.7066 9.97289 52.9316 10.1354C53.1566 10.2979 53.4316 10.3541 53.7691 10.2916V10.2854Z" fill="#96561C"/>
</g>
<g filter="url(#filter17_i_16177_22315)">
<path d="M56.6566 10.4664L56.8191 6.09766L59.5191 6.19766L59.4941 6.81016L57.4691 6.73516L57.4191 7.99766L59.2816 8.06641L59.2566 8.67891L57.3941 8.61016L57.3254 10.4977L56.6504 10.4727L56.6566 10.4664Z" fill="#96561C"/>
</g>
<g filter="url(#filter18_i_16177_22315)">
<path d="M63.013 11.4168L64.238 7.86055L62.9692 7.42305L63.1692 6.8418L66.3505 7.93555L66.1505 8.5168L64.8817 8.0793L63.6567 11.6355L63.0192 11.4168H63.013Z" fill="#96561C"/>
</g>
<g filter="url(#filter19_i_16177_22315)">
<path d="M65.7129 12.46L68.0129 8.74121L68.5879 9.09746L67.6004 10.6912L69.1629 11.66L70.1504 10.0662L70.7254 10.4225L68.4254 14.1412L67.8504 13.785L68.8441 12.1787L67.2816 11.21L66.2879 12.8162L65.7129 12.46Z" fill="#96561C"/>
</g>
<g filter="url(#filter20_i_16177_22315)">
<path d="M69.3254 14.8855L72.3692 11.748L74.3504 13.6668L73.9254 14.1043L72.4317 12.6543L71.5567 13.5543L72.9254 14.8793L72.5004 15.3168L71.1317 13.9855L70.2379 14.9043L71.7567 16.373L71.3317 16.8105L69.3317 14.8668L69.3254 14.8855Z" fill="#96561C"/>
</g>
<g filter="url(#filter21_i_16177_22315)">
<path d="M73.2878 19.4291L76.9566 16.9541L77.2503 17.5604L73.9441 19.7291L73.9878 19.8229L77.8128 18.7354L78.3253 19.7979L75.0816 22.1041L75.1253 22.1916L78.8816 20.9666L79.1753 21.5729L74.9503 22.8854L74.4378 21.8229L77.7253 19.4854L77.6816 19.3979L73.8003 20.5041L73.2878 19.4354V19.4291Z" fill="#96561C"/>
</g>
<g filter="url(#filter22_i_16177_22315)">
<path d="M75.3625 24.373L79.6563 23.5293L80.1876 26.2355L79.5875 26.3543L79.1875 24.3105L77.9563 24.5543L78.325 26.423L77.725 26.5418L77.3563 24.673L76.1 24.923L76.5063 26.998L75.9063 27.1168L75.3688 24.3793L75.3625 24.373Z" fill="#96561C"/>
</g>
<g filter="url(#filter23_i_16177_22315)">
<path d="M75.9691 28.0912L80.3441 28.1287L80.3191 30.885H79.7066L79.7253 28.7975L78.4691 28.785L78.4566 30.6912H77.8441L77.8566 28.7787L76.5753 28.7662L76.5566 30.8787H75.9441L75.9691 28.085V28.0912Z" fill="#96561C"/>
</g>
<g filter="url(#filter24_i_16177_22315)">
<path d="M75.8314 31.8475L80.1064 32.785L79.9626 33.4412L78.1876 33.0537L78.1689 33.1537L79.5939 35.135L79.4064 35.9975L77.7251 33.6037L75.1189 35.1225L75.3126 34.235L77.4876 32.9975L77.5126 32.8975L75.7001 32.4975L75.8439 31.835L75.8314 31.8475Z" fill="#96561C"/>
</g>
</g>
<g clip-path="url(#clip2_16177_22315)">
<path d="M100.28 10.68C111.24 27.56 108.12 51.16 91.4001 63.88C91.0801 64.2 90.9201 64.6 91.0801 64.84C91.2401 65.08 91.7201 65.08 92.0401 64.76C99.9736 58.4812 105.21 49.4101 106.68 39.4C108.2 29.32 105.96 19.08 100.28 10.68ZM99.4001 58.2C101.72 60.2 106.36 58.52 108.68 53.88C105.88 52.52 102.12 54.68 99.4001 58.2ZM96.9201 47.72C95.4001 50.84 95.4001 54.76 97.7201 56.84C100.44 53.32 99.6401 49 96.9201 47.72ZM103.72 51.24C106.36 52.84 110.52 50.28 111.88 45.32C108.92 44.6 105.72 47.4 103.72 51.24ZM99.1601 41.64C98.2801 45 99.0801 48.84 101.8 50.28H101.88C103.8 46.36 102.12 42.36 99.1601 41.64ZM106.52 43.8C109.48 44.76 113 41.48 113.4 36.36C110.36 36.2 107.72 39.64 106.52 43.8ZM100.2 35.32C99.9601 38.76 101.56 42.28 104.52 43.24V43.16C105.64 39 103.32 35.48 100.2 35.32ZM113.16 27.24C110.12 27.8 108.2 31.64 107.88 35.88C110.92 36.28 113.8 32.36 113.16 27.24ZM100.04 28.92C100.52 32.36 102.68 35.4 105.72 35.8L105.8 35.72C106.04 31.48 103.08 28.44 100.04 28.92ZM98.6801 22.68C99.7201 25.96 102.52 28.52 105.56 28.2C105.08 23.96 101.56 21.56 98.6801 22.68ZM111.24 18.36C108.44 19.48 107.24 23.56 107.64 27.72L107.72 27.96H107.8C110.76 27.56 112.76 23.4 111.32 18.6L111.24 18.36ZM96.1201 16.68C97.8801 19.72 101 21.72 103.96 20.84C102.68 16.76 98.7601 15 96.1201 16.68ZM107.56 9.96C105 11.64 104.68 16.04 105.96 20.2C108.92 19.32 110.2 14.52 107.56 9.96ZM92.3601 11.24C94.7601 13.96 98.2801 15.32 101 13.88C98.8401 10.04 94.5201 9.08 92.3601 11.24ZM102.28 2.28C100.04 4.52 100.68 9 102.84 12.76C105.48 11.32 105.8 6.36 102.28 2.28ZM91.0801 1C92.5201 4.76 95.5601 7.72 99.2401 9.16C99.2401 5.32 95.0801 1.08 91.0801 1Z" fill="#D1D5DA"/>
</g>
</g>
<defs>
<filter id="filter0_d_16177_22315" x="15" y="-12" width="84" height="98" filterUnits="userSpaceOnUse" color-interpolation-filters="sRGB">
<feFlood flood-opacity="0" result="BackgroundImageFix"/>
<feColorMatrix in="SourceAlpha" type="matrix" values="0 0 0 0 0 0 0 0 0 0 0 0 0 0 0 0 0 0 127 0" result="hardAlpha"/>
<feOffset dy="4"/>
<feGaussianBlur stdDeviation="8"/>
<feComposite in2="hardAlpha" operator="out"/>
<feColorMatrix type="matrix" values="0 0 0 0 0 0 0 0 0 0 0 0 0 0 0 0 0 0 0.05 0"/>
<feBlend mode="normal" in2="BackgroundImageFix" result="effect1_dropShadow_16177_22315"/>
<feBlend mode="normal" in="SourceGraphic" in2="effect1_dropShadow_16177_22315" result="shape"/>
</filter>
<filter id="filter1_ii_16177_22315" x="30.7481" y="2.00001" width="52.5" height="53.75" filterUnits="userSpaceOnUse" color-interpolation-filters="sRGB">
<feFlood flood-opacity="0" result="BackgroundImageFix"/>
<feBlend mode="normal" in="SourceGraphic" in2="BackgroundImageFix" result="shape"/>
<feColorMatrix in="SourceAlpha" type="matrix" values="0 0 0 0 0 0 0 0 0 0 0 0 0 0 0 0 0 0 127 0" result="hardAlpha"/>
<feOffset dx="-1.24999" dy="-1.87499"/>
<feGaussianBlur stdDeviation="1.24999"/>
<feComposite in2="hardAlpha" operator="arithmetic" k2="-1" k3="1"/>
<feColorMatrix type="matrix" values="0 0 0 0 1 0 0 0 0 1 0 0 0 0 1 0 0 0 0.55 0"/>
<feBlend mode="normal" in2="shape" result="effect1_innerShadow_16177_22315"/>
<feColorMatrix in="SourceAlpha" type="matrix" values="0 0 0 0 0 0 0 0 0 0 0 0 0 0 0 0 0 0 127 0" result="hardAlpha"/>
<feOffset dx="1.24999" dy="1.87499"/>
<feGaussianBlur stdDeviation="1.24999"/>
<feComposite in2="hardAlpha" operator="arithmetic" k2="-1" k3="1"/>
<feColorMatrix type="matrix" values="0 0 0 0 1 0 0 0 0 1 0 0 0 0 1 0 0 0 0.55 0"/>
<feBlend mode="normal" in2="effect1_innerShadow_16177_22315" result="effect2_innerShadow_16177_22315"/>
</filter>
<filter id="filter2_f_16177_22315" x="38.5562" y="10.624" width="36.8789" height="36.8779" filterUnits="userSpaceOnUse" color-interpolation-filters="sRGB">
<feFlood flood-opacity="0" result="BackgroundImageFix"/>
<feBlend mode="normal" in="SourceGraphic" in2="BackgroundImageFix" result="shape"/>
<feGaussianBlur stdDeviation="0.624997" result="effect1_foregroundBlur_16177_22315"/>
</filter>
<filter id="filter3_i_16177_22315" x="40.1218" y="12" width="33.75" height="34" filterUnits="userSpaceOnUse" color-interpolation-filters="sRGB">
<feFlood flood-opacity="0" result="BackgroundImageFix"/>
<feBlend mode="normal" in="SourceGraphic" in2="BackgroundImageFix" result="shape"/>
<feColorMatrix in="SourceAlpha" type="matrix" values="0 0 0 0 0 0 0 0 0 0 0 0 0 0 0 0 0 0 127 0" result="hardAlpha"/>
<feOffset dy="0.249999"/>
<feGaussianBlur stdDeviation="0.156249"/>
<feComposite in2="hardAlpha" operator="arithmetic" k2="-1" k3="1"/>
<feColorMatrix type="matrix" values="0 0 0 0 0 0 0 0 0 0 0 0 0 0 0 0 0 0 0.25 0"/>
<feBlend mode="normal" in2="shape" result="effect1_innerShadow_16177_22315"/>
</filter>
<filter id="filter4_i_16177_22315" x="31.3718" y="3.25" width="51.25" height="51.5" filterUnits="userSpaceOnUse" color-interpolation-filters="sRGB">
<feFlood flood-opacity="0" result="BackgroundImageFix"/>
<feBlend mode="normal" in="SourceGraphic" in2="BackgroundImageFix" result="shape"/>
<feColorMatrix in="SourceAlpha" type="matrix" values="0 0 0 0 0 0 0 0 0 0 0 0 0 0 0 0 0 0 127 0" result="hardAlpha"/>
<feOffset dy="0.249999"/>
<feGaussianBlur stdDeviation="0.156249"/>
<feComposite in2="hardAlpha" operator="arithmetic" k2="-1" k3="1"/>
<feColorMatrix type="matrix" values="0 0 0 0 0 0 0 0 0 0 0 0 0 0 0 0 0 0 0.25 0"/>
<feBlend mode="normal" in2="shape" result="effect1_innerShadow_16177_22315"/>
</filter>
<filter id="filter5_i_16177_22315" x="46.8828" y="22.0625" width="19.6482" height="14.3125" filterUnits="userSpaceOnUse" color-interpolation-filters="sRGB">
<feFlood flood-opacity="0" result="BackgroundImageFix"/>
<feBlend mode="normal" in="SourceGraphic" in2="BackgroundImageFix" result="shape"/>
<feColorMatrix in="SourceAlpha" type="matrix" values="0 0 0 0 0 0 0 0 0 0 0 0 0 0 0 0 0 0 127 0" result="hardAlpha"/>
<feOffset dx="0.312499" dy="0.312499"/>
<feGaussianBlur stdDeviation="0.312499"/>
<feComposite in2="hardAlpha" operator="arithmetic" k2="-1" k3="1"/>
<feColorMatrix type="matrix" values="0 0 0 0 0 0 0 0 0 0 0 0 0 0 0 0 0 0 0.2 0"/>
<feBlend mode="normal" in2="shape" result="effect1_innerShadow_16177_22315"/>
</filter>
<filter id="filter6_i_16177_22315" x="38.21" y="39.123" width="3.93994" height="4.19043" filterUnits="userSpaceOnUse" color-interpolation-filters="sRGB">
<feFlood flood-opacity="0" result="BackgroundImageFix"/>
<feBlend mode="normal" in="SourceGraphic" in2="BackgroundImageFix" result="shape"/>
<feColorMatrix in="SourceAlpha" type="matrix" values="0 0 0 0 0 0 0 0 0 0 0 0 0 0 0 0 0 0 127 0" result="hardAlpha"/>
<feOffset dy="0.25"/>
<feGaussianBlur stdDeviation="0.15625"/>
<feComposite in2="hardAlpha" operator="arithmetic" k2="-1" k3="1"/>
<feColorMatrix type="matrix" values="0 0 0 0 0 0 0 0 0 0 0 0 0 0 0 0 0 0 0.25 0"/>
<feBlend mode="normal" in2="shape" result="effect1_innerShadow_16177_22315"/>
</filter>
<filter id="filter7_i_16177_22315" x="72.9116" y="38.248" width="3.94019" height="4.19043" filterUnits="userSpaceOnUse" color-interpolation-filters="sRGB">
<feFlood flood-opacity="0" result="BackgroundImageFix"/>
<feBlend mode="normal" in="SourceGraphic" in2="BackgroundImageFix" result="shape"/>
<feColorMatrix in="SourceAlpha" type="matrix" values="0 0 0 0 0 0 0 0 0 0 0 0 0 0 0 0 0 0 127 0" result="hardAlpha"/>
<feOffset dy="0.25"/>
<feGaussianBlur stdDeviation="0.15625"/>
<feComposite in2="hardAlpha" operator="arithmetic" k2="-1" k3="1"/>
<feColorMatrix type="matrix" values="0 0 0 0 0 0 0 0 0 0 0 0 0 0 0 0 0 0 0.25 0"/>
<feBlend mode="normal" in2="shape" result="effect1_innerShadow_16177_22315"/>
</filter>
<filter id="filter8_i_16177_22315" x="44.6758" y="44.6387" width="25.7336" height="7.62695" filterUnits="userSpaceOnUse" color-interpolation-filters="sRGB">
<feFlood flood-opacity="0" result="BackgroundImageFix"/>
<feBlend mode="normal" in="SourceGraphic" in2="BackgroundImageFix" result="shape"/>
<feColorMatrix in="SourceAlpha" type="matrix" values="0 0 0 0 0 0 0 0 0 0 0 0 0 0 0 0 0 0 127 0" result="hardAlpha"/>
<feOffset dy="0.25"/>
<feGaussianBlur stdDeviation="0.15625"/>
<feComposite in2="hardAlpha" operator="arithmetic" k2="-1" k3="1"/>
<feColorMatrix type="matrix" values="0 0 0 0 0 0 0 0 0 0 0 0 0 0 0 0 0 0 0.25 0"/>
<feBlend mode="normal" in2="shape" result="effect1_innerShadow_16177_22315"/>
</filter>
<filter id="filter9_i_16177_22315" x="34.5989" y="32.6484" width="4.71362" height="3.65527" filterUnits="userSpaceOnUse" color-interpolation-filters="sRGB">
<feFlood flood-opacity="0" result="BackgroundImageFix"/>
<feBlend mode="normal" in="SourceGraphic" in2="BackgroundImageFix" result="shape"/>
<feColorMatrix in="SourceAlpha" type="matrix" values="0 0 0 0 0 0 0 0 0 0 0 0 0 0 0 0 0 0 127 0" result="hardAlpha"/>
<feOffset dy="0.25"/>
<feGaussianBlur stdDeviation="0.15625"/>
<feComposite in2="hardAlpha" operator="arithmetic" k2="-1" k3="1"/>
<feColorMatrix type="matrix" values="0 0 0 0 0 0 0 0 0 0 0 0 0 0 0 0 0 0 0.25 0"/>
<feBlend mode="normal" in2="shape" result="effect1_innerShadow_16177_22315"/>
</filter>
<filter id="filter10_i_16177_22315" x="34.0752" y="27.96" width="4.4126" height="3.47461" filterUnits="userSpaceOnUse" color-interpolation-filters="sRGB">
<feFlood flood-opacity="0" result="BackgroundImageFix"/>
<feBlend mode="normal" in="SourceGraphic" in2="BackgroundImageFix" result="shape"/>
<feColorMatrix in="SourceAlpha" type="matrix" values="0 0 0 0 0 0 0 0 0 0 0 0 0 0 0 0 0 0 127 0" result="hardAlpha"/>
<feOffset dy="0.25"/>
<feGaussianBlur stdDeviation="0.15625"/>
<feComposite in2="hardAlpha" operator="arithmetic" k2="-1" k3="1"/>
<feColorMatrix type="matrix" values="0 0 0 0 0 0 0 0 0 0 0 0 0 0 0 0 0 0 0.25 0"/>
<feBlend mode="normal" in2="shape" result="effect1_innerShadow_16177_22315"/>
</filter>
<filter id="filter11_i_16177_22315" x="34.4568" y="22.9521" width="4.56201" height="4.02246" filterUnits="userSpaceOnUse" color-interpolation-filters="sRGB">
<feFlood flood-opacity="0" result="BackgroundImageFix"/>
<feBlend mode="normal" in="SourceGraphic" in2="BackgroundImageFix" result="shape"/>
<feColorMatrix in="SourceAlpha" type="matrix" values="0 0 0 0 0 0 0 0 0 0 0 0 0 0 0 0 0 0 127 0" result="hardAlpha"/>
<feOffset dy="0.25"/>
<feGaussianBlur stdDeviation="0.15625"/>
<feComposite in2="hardAlpha" operator="arithmetic" k2="-1" k3="1"/>
<feColorMatrix type="matrix" values="0 0 0 0 0 0 0 0 0 0 0 0 0 0 0 0 0 0 0.25 0"/>
<feBlend mode="normal" in2="shape" result="effect1_innerShadow_16177_22315"/>
</filter>
<filter id="filter12_i_16177_22315" x="36.1255" y="17.9785" width="4.24512" height="4.67969" filterUnits="userSpaceOnUse" color-interpolation-filters="sRGB">
<feFlood flood-opacity="0" result="BackgroundImageFix"/>
<feBlend mode="normal" in="SourceGraphic" in2="BackgroundImageFix" result="shape"/>
<feColorMatrix in="SourceAlpha" type="matrix" values="0 0 0 0 0 0 0 0 0 0 0 0 0 0 0 0 0 0 127 0" result="hardAlpha"/>
<feOffset dy="0.25"/>
<feGaussianBlur stdDeviation="0.15625"/>
<feComposite in2="hardAlpha" operator="arithmetic" k2="-1" k3="1"/>
<feColorMatrix type="matrix" values="0 0 0 0 0 0 0 0 0 0 0 0 0 0 0 0 0 0 0.25 0"/>
<feBlend mode="normal" in2="shape" result="effect1_innerShadow_16177_22315"/>
</filter>
<filter id="filter13_i_16177_22315" x="37.9504" y="14.1729" width="5.1626" height="5.08105" filterUnits="userSpaceOnUse" color-interpolation-filters="sRGB">
<feFlood flood-opacity="0" result="BackgroundImageFix"/>
<feBlend mode="normal" in="SourceGraphic" in2="BackgroundImageFix" result="shape"/>
<feColorMatrix in="SourceAlpha" type="matrix" values="0 0 0 0 0 0 0 0 0 0 0 0 0 0 0 0 0 0 127 0" result="hardAlpha"/>
<feOffset dy="0.25"/>
<feGaussianBlur stdDeviation="0.15625"/>
<feComposite in2="hardAlpha" operator="arithmetic" k2="-1" k3="1"/>
<feColorMatrix type="matrix" values="0 0 0 0 0 0 0 0 0 0 0 0 0 0 0 0 0 0 0.25 0"/>
<feBlend mode="normal" in2="shape" result="effect1_innerShadow_16177_22315"/>
</filter>
<filter id="filter14_i_16177_22315" x="41.4263" y="11.1621" width="4.28931" height="4.65039" filterUnits="userSpaceOnUse" color-interpolation-filters="sRGB">
<feFlood flood-opacity="0" result="BackgroundImageFix"/>
<feBlend mode="normal" in="SourceGraphic" in2="BackgroundImageFix" result="shape"/>
<feColorMatrix in="SourceAlpha" type="matrix" values="0 0 0 0 0 0 0 0 0 0 0 0 0 0 0 0 0 0 127 0" result="hardAlpha"/>
<feOffset dy="0.25"/>
<feGaussianBlur stdDeviation="0.15625"/>
<feComposite in2="hardAlpha" operator="arithmetic" k2="-1" k3="1"/>
<feColorMatrix type="matrix" values="0 0 0 0 0 0 0 0 0 0 0 0 0 0 0 0 0 0 0.25 0"/>
<feBlend mode="normal" in2="shape" result="effect1_innerShadow_16177_22315"/>
</filter>
<filter id="filter15_i_16177_22315" x="44.6753" y="8.13477" width="3.86255" height="5.0625" filterUnits="userSpaceOnUse" color-interpolation-filters="sRGB">
<feFlood flood-opacity="0" result="BackgroundImageFix"/>
<feBlend mode="normal" in="SourceGraphic" in2="BackgroundImageFix" result="shape"/>
<feColorMatrix in="SourceAlpha" type="matrix" values="0 0 0 0 0 0 0 0 0 0 0 0 0 0 0 0 0 0 127 0" result="hardAlpha"/>
<feOffset dy="0.25"/>
<feGaussianBlur stdDeviation="0.15625"/>
<feComposite in2="hardAlpha" operator="arithmetic" k2="-1" k3="1"/>
<feColorMatrix type="matrix" values="0 0 0 0 0 0 0 0 0 0 0 0 0 0 0 0 0 0 0.25 0"/>
<feBlend mode="normal" in2="shape" result="effect1_innerShadow_16177_22315"/>
</filter>
<filter id="filter16_i_16177_22315" x="51.6077" y="6.37012" width="3.729" height="4.80566" filterUnits="userSpaceOnUse" color-interpolation-filters="sRGB">
<feFlood flood-opacity="0" result="BackgroundImageFix"/>
<feBlend mode="normal" in="SourceGraphic" in2="BackgroundImageFix" result="shape"/>
<feColorMatrix in="SourceAlpha" type="matrix" values="0 0 0 0 0 0 0 0 0 0 0 0 0 0 0 0 0 0 127 0" result="hardAlpha"/>
<feOffset dy="0.25"/>
<feGaussianBlur stdDeviation="0.15625"/>
<feComposite in2="hardAlpha" operator="arithmetic" k2="-1" k3="1"/>
<feColorMatrix type="matrix" values="0 0 0 0 0 0 0 0 0 0 0 0 0 0 0 0 0 0 0.25 0"/>
<feBlend mode="normal" in2="shape" result="effect1_innerShadow_16177_22315"/>
</filter>
<filter id="filter17_i_16177_22315" x="56.6504" y="6.09766" width="2.86865" height="4.65039" filterUnits="userSpaceOnUse" color-interpolation-filters="sRGB">
<feFlood flood-opacity="0" result="BackgroundImageFix"/>
<feBlend mode="normal" in="SourceGraphic" in2="BackgroundImageFix" result="shape"/>
<feColorMatrix in="SourceAlpha" type="matrix" values="0 0 0 0 0 0 0 0 0 0 0 0 0 0 0 0 0 0 127 0" result="hardAlpha"/>
<feOffset dy="0.25"/>
<feGaussianBlur stdDeviation="0.15625"/>
<feComposite in2="hardAlpha" operator="arithmetic" k2="-1" k3="1"/>
<feColorMatrix type="matrix" values="0 0 0 0 0 0 0 0 0 0 0 0 0 0 0 0 0 0 0.25 0"/>
<feBlend mode="normal" in2="shape" result="effect1_innerShadow_16177_22315"/>
</filter>
<filter id="filter18_i_16177_22315" x="62.9692" y="6.8418" width="3.38135" height="5.04395" filterUnits="userSpaceOnUse" color-interpolation-filters="sRGB">
<feFlood flood-opacity="0" result="BackgroundImageFix"/>
<feBlend mode="normal" in="SourceGraphic" in2="BackgroundImageFix" result="shape"/>
<feColorMatrix in="SourceAlpha" type="matrix" values="0 0 0 0 0 0 0 0 0 0 0 0 0 0 0 0 0 0 127 0" result="hardAlpha"/>
<feOffset dy="0.25"/>
<feGaussianBlur stdDeviation="0.15625"/>
<feComposite in2="hardAlpha" operator="arithmetic" k2="-1" k3="1"/>
<feColorMatrix type="matrix" values="0 0 0 0 0 0 0 0 0 0 0 0 0 0 0 0 0 0 0.25 0"/>
<feBlend mode="normal" in2="shape" result="effect1_innerShadow_16177_22315"/>
</filter>
<filter id="filter19_i_16177_22315" x="65.7129" y="8.74121" width="5.01245" height="5.65039" filterUnits="userSpaceOnUse" color-interpolation-filters="sRGB">
<feFlood flood-opacity="0" result="BackgroundImageFix"/>
<feBlend mode="normal" in="SourceGraphic" in2="BackgroundImageFix" result="shape"/>
<feColorMatrix in="SourceAlpha" type="matrix" values="0 0 0 0 0 0 0 0 0 0 0 0 0 0 0 0 0 0 127 0" result="hardAlpha"/>
<feOffset dy="0.25"/>
<feGaussianBlur stdDeviation="0.15625"/>
<feComposite in2="hardAlpha" operator="arithmetic" k2="-1" k3="1"/>
<feColorMatrix type="matrix" values="0 0 0 0 0 0 0 0 0 0 0 0 0 0 0 0 0 0 0.25 0"/>
<feBlend mode="normal" in2="shape" result="effect1_innerShadow_16177_22315"/>
</filter>
<filter id="filter20_i_16177_22315" x="69.3254" y="11.748" width="5.0249" height="5.3125" filterUnits="userSpaceOnUse" color-interpolation-filters="sRGB">
<feFlood flood-opacity="0" result="BackgroundImageFix"/>
<feBlend mode="normal" in="SourceGraphic" in2="BackgroundImageFix" result="shape"/>
<feColorMatrix in="SourceAlpha" type="matrix" values="0 0 0 0 0 0 0 0 0 0 0 0 0 0 0 0 0 0 127 0" result="hardAlpha"/>
<feOffset dy="0.25"/>
<feGaussianBlur stdDeviation="0.15625"/>
<feComposite in2="hardAlpha" operator="arithmetic" k2="-1" k3="1"/>
<feColorMatrix type="matrix" values="0 0 0 0 0 0 0 0 0 0 0 0 0 0 0 0 0 0 0.25 0"/>
<feBlend mode="normal" in2="shape" result="effect1_innerShadow_16177_22315"/>
</filter>
<filter id="filter21_i_16177_22315" x="73.2878" y="16.9541" width="5.88745" height="6.18164" filterUnits="userSpaceOnUse" color-interpolation-filters="sRGB">
<feFlood flood-opacity="0" result="BackgroundImageFix"/>
<feBlend mode="normal" in="SourceGraphic" in2="BackgroundImageFix" result="shape"/>
<feColorMatrix in="SourceAlpha" type="matrix" values="0 0 0 0 0 0 0 0 0 0 0 0 0 0 0 0 0 0 127 0" result="hardAlpha"/>
<feOffset dy="0.25"/>
<feGaussianBlur stdDeviation="0.15625"/>
<feComposite in2="hardAlpha" operator="arithmetic" k2="-1" k3="1"/>
<feColorMatrix type="matrix" values="0 0 0 0 0 0 0 0 0 0 0 0 0 0 0 0 0 0 0.25 0"/>
<feBlend mode="normal" in2="shape" result="effect1_innerShadow_16177_22315"/>
</filter>
<filter id="filter22_i_16177_22315" x="75.3625" y="23.5293" width="4.82495" height="3.83789" filterUnits="userSpaceOnUse" color-interpolation-filters="sRGB">
<feFlood flood-opacity="0" result="BackgroundImageFix"/>
<feBlend mode="normal" in="SourceGraphic" in2="BackgroundImageFix" result="shape"/>
<feColorMatrix in="SourceAlpha" type="matrix" values="0 0 0 0 0 0 0 0 0 0 0 0 0 0 0 0 0 0 127 0" result="hardAlpha"/>
<feOffset dy="0.25"/>
<feGaussianBlur stdDeviation="0.15625"/>
<feComposite in2="hardAlpha" operator="arithmetic" k2="-1" k3="1"/>
<feColorMatrix type="matrix" values="0 0 0 0 0 0 0 0 0 0 0 0 0 0 0 0 0 0 0.25 0"/>
<feBlend mode="normal" in2="shape" result="effect1_innerShadow_16177_22315"/>
</filter>
<filter id="filter23_i_16177_22315" x="75.9441" y="28.085" width="4.3999" height="3.0498" filterUnits="userSpaceOnUse" color-interpolation-filters="sRGB">
<feFlood flood-opacity="0" result="BackgroundImageFix"/>
<feBlend mode="normal" in="SourceGraphic" in2="BackgroundImageFix" result="shape"/>
<feColorMatrix in="SourceAlpha" type="matrix" values="0 0 0 0 0 0 0 0 0 0 0 0 0 0 0 0 0 0 127 0" result="hardAlpha"/>
<feOffset dy="0.25"/>
<feGaussianBlur stdDeviation="0.15625"/>
<feComposite in2="hardAlpha" operator="arithmetic" k2="-1" k3="1"/>
<feColorMatrix type="matrix" values="0 0 0 0 0 0 0 0 0 0 0 0 0 0 0 0 0 0 0.25 0"/>
<feBlend mode="normal" in2="shape" result="effect1_innerShadow_16177_22315"/>
</filter>
<filter id="filter24_i_16177_22315" x="75.1189" y="31.835" width="4.98755" height="4.41211" filterUnits="userSpaceOnUse" color-interpolation-filters="sRGB">
<feFlood flood-opacity="0" result="BackgroundImageFix"/>
<feBlend mode="normal" in="SourceGraphic" in2="BackgroundImageFix" result="shape"/>
<feColorMatrix in="SourceAlpha" type="matrix" values="0 0 0 0 0 0 0 0 0 0 0 0 0 0 0 0 0 0 127 0" result="hardAlpha"/>
<feOffset dy="0.25"/>
<feGaussianBlur stdDeviation="0.15625"/>
<feComposite in2="hardAlpha" operator="arithmetic" k2="-1" k3="1"/>
<feColorMatrix type="matrix" values="0 0 0 0 0 0 0 0 0 0 0 0 0 0 0 0 0 0 0.25 0"/>
<feBlend mode="normal" in2="shape" result="effect1_innerShadow_16177_22315"/>
</filter>
<linearGradient id="paint0_linear_16177_22315" x1="29.6406" y1="2.24975" x2="36.7371" y2="69.5408" gradientUnits="userSpaceOnUse">
<stop offset="0.0946799" stop-color="#FEDE6D"/>
<stop offset="0.370604" stop-color="#EAB94C"/>
<stop offset="0.75" stop-color="#FFED71"/>
<stop offset="0.866546" stop-color="#FAD27B"/>
</linearGradient>
<clipPath id="clip0_16177_22315">
<rect width="112.8" height="66" fill="white" transform="translate(0.600098)"/>
</clipPath>
<clipPath id="clip1_16177_22315">
<rect width="22.4" height="64" fill="white" transform="translate(0.600098 1)"/>
</clipPath>
<clipPath id="clip2_16177_22315">
<rect width="22.4" height="64" fill="white" transform="matrix(-1 0 0 1 113.4 1)"/>
</clipPath>
</defs>
</svg>
