<svg width="545" height="174" viewBox="0 0 545 174" fill="none" xmlns="http://www.w3.org/2000/svg">
<path d="M14.1 101.8C12.0333 101.8 10.4333 101.233 9.3 100.1C8.23333 98.9 7.7 97.2667 7.7 95.2V37C7.7 34.8667 8.26667 33.2667 9.4 32.2C10.5333 31.0667 12.1333 30.5 14.2 30.5H38.3C46.0333 30.5 52 32.3667 56.2 36.1C60.4 39.7667 62.5 44.9333 62.5 51.6C62.5 55.9333 61.5333 59.6667 59.6 62.8C57.7333 65.9333 55 68.3333 51.4 70C47.8 71.6667 43.4333 72.5 38.3 72.5L39.2 71H42.5C45.2333 71 47.6 71.6667 49.6 73C51.6667 74.3333 53.4667 76.4333 55 79.3L62.5 93.2C63.3 94.6 63.6667 95.9667 63.6 97.3C63.5333 98.6333 63.0333 99.7333 62.1 100.6C61.1667 101.4 59.8 101.8 58 101.8C56.2 101.8 54.7333 101.433 53.6 100.7C52.4667 99.9 51.4667 98.7 50.6 97.1L40.5 78.5C39.3 76.2333 37.8667 74.7333 36.2 74C34.6 73.2 32.5333 72.8 30 72.8H20.5V95.2C20.5 97.2667 19.9667 98.9 18.9 100.1C17.8333 101.233 16.2333 101.8 14.1 101.8ZM20.5 63.3H36.1C40.7 63.3 44.1667 62.3667 46.5 60.5C48.9 58.5667 50.1 55.7 50.1 51.9C50.1 48.1667 48.9 45.3667 46.5 43.5C44.1667 41.5667 40.7 40.6 36.1 40.6H20.5V63.3ZM96.0852 102C91.0185 102 86.6185 100.967 82.8852 98.9C79.1518 96.8333 76.2518 93.9 74.1852 90.1C72.1185 86.2333 71.0852 81.7 71.0852 76.5C71.0852 72.5667 71.6518 69.0667 72.7852 66C73.9852 62.8667 75.6852 60.2 77.8852 58C80.0852 55.7333 82.7185 54.0333 85.7852 52.9C88.8518 51.7 92.2852 51.1 96.0852 51.1C101.152 51.1 105.552 52.1333 109.285 54.2C113.018 56.2667 115.918 59.2 117.985 63C120.052 66.8 121.085 71.3 121.085 76.5C121.085 80.4333 120.485 83.9667 119.285 87.1C118.152 90.2333 116.485 92.9333 114.285 95.2C112.085 97.4 109.452 99.1 106.385 100.3C103.318 101.433 99.8852 102 96.0852 102ZM96.0852 92.5C98.5518 92.5 100.718 91.9 102.585 90.7C104.452 89.5 105.885 87.7333 106.885 85.4C107.952 83 108.485 80.0333 108.485 76.5C108.485 71.1667 107.352 67.2 105.085 64.6C102.818 61.9333 99.8185 60.6 96.0852 60.6C93.6185 60.6 91.4518 61.2 89.5852 62.4C87.7185 63.5333 86.2518 65.3 85.1852 67.7C84.1852 70.0333 83.6852 72.9667 83.6852 76.5C83.6852 81.7667 84.8185 85.7667 87.0852 88.5C89.3518 91.1667 92.3518 92.5 96.0852 92.5ZM147.502 102C143.969 102 140.802 101.333 138.002 100C135.269 98.6 133.102 96.7333 131.502 94.4C129.969 92.0667 129.202 89.4333 129.202 86.5C129.202 82.9 130.136 80.0667 132.002 78C133.869 75.8667 136.902 74.3333 141.102 73.4C145.302 72.4667 150.936 72 158.002 72H163.002V79.2H158.102C153.969 79.2 150.669 79.4 148.202 79.8C145.736 80.2 143.969 80.9 142.902 81.9C141.902 82.8333 141.402 84.1667 141.402 85.9C141.402 88.1 142.169 89.9 143.702 91.3C145.236 92.7 147.369 93.4 150.102 93.4C152.302 93.4 154.236 92.9 155.902 91.9C157.636 90.8333 159.002 89.4 160.002 87.6C161.002 85.8 161.502 83.7333 161.502 81.4V69.9C161.502 66.5667 160.769 64.1667 159.302 62.7C157.836 61.2333 155.369 60.5 151.902 60.5C149.969 60.5 147.869 60.7333 145.602 61.2C143.402 61.6667 141.069 62.4667 138.602 63.6C137.336 64.2 136.202 64.3667 135.202 64.1C134.269 63.8333 133.536 63.3 133.002 62.5C132.469 61.6333 132.202 60.7 132.202 59.7C132.202 58.7 132.469 57.7333 133.002 56.8C133.536 55.8 134.436 55.0667 135.702 54.6C138.769 53.3333 141.702 52.4333 144.502 51.9C147.369 51.3667 149.969 51.1 152.302 51.1C157.102 51.1 161.036 51.8333 164.102 53.3C167.236 54.7667 169.569 57 171.102 60C172.636 62.9333 173.402 66.7333 173.402 71.4V95.4C173.402 97.4667 172.902 99.0667 171.902 100.2C170.902 101.267 169.469 101.8 167.602 101.8C165.736 101.8 164.269 101.267 163.202 100.2C162.202 99.0667 161.702 97.4667 161.702 95.4V90.6H162.502C162.036 92.9333 161.102 94.9667 159.702 96.7C158.369 98.3667 156.669 99.6667 154.602 100.6C152.536 101.533 150.169 102 147.502 102ZM204.89 102C200.623 102 196.857 100.967 193.59 98.9C190.39 96.8333 187.89 93.9 186.09 90.1C184.29 86.2333 183.39 81.7 183.39 76.5C183.39 71.2333 184.29 66.7333 186.09 63C187.89 59.2 190.39 56.2667 193.59 54.2C196.857 52.1333 200.623 51.1 204.89 51.1C208.957 51.1 212.49 52.1 215.49 54.1C218.557 56.1 220.623 58.7333 221.69 62H220.59V36C220.59 33.9333 221.123 32.3667 222.19 31.3C223.257 30.2333 224.79 29.7 226.79 29.7C228.79 29.7 230.323 30.2333 231.39 31.3C232.523 32.3667 233.09 33.9333 233.09 36V95.4C233.09 97.4667 232.557 99.0667 231.49 100.2C230.423 101.267 228.89 101.8 226.89 101.8C224.89 101.8 223.357 101.267 222.29 100.2C221.223 99.0667 220.69 97.4667 220.69 95.4V87.6L221.79 90.6C220.79 94.0667 218.757 96.8333 215.69 98.9C212.623 100.967 209.023 102 204.89 102ZM208.39 92.5C210.857 92.5 213.023 91.9 214.89 90.7C216.757 89.5 218.19 87.7333 219.19 85.4C220.257 83 220.79 80.0333 220.79 76.5C220.79 71.1667 219.657 67.2 217.39 64.6C215.123 61.9333 212.123 60.6 208.39 60.6C205.923 60.6 203.757 61.2 201.89 62.4C200.023 63.5333 198.557 65.3 197.49 67.7C196.49 70.0333 195.99 72.9667 195.99 76.5C195.99 81.7667 197.123 85.7667 199.39 88.5C201.657 91.1667 204.657 92.5 208.39 92.5ZM252.451 101.8C250.451 101.8 248.917 101.267 247.851 100.2C246.784 99.0667 246.251 97.4667 246.251 95.4V57.6C246.251 55.5333 246.784 53.9667 247.851 52.9C248.917 51.8333 250.417 51.3 252.351 51.3C254.284 51.3 255.784 51.8333 256.851 52.9C257.917 53.9667 258.451 55.5333 258.451 57.6V64.9L257.351 61.9C258.684 58.5667 260.751 55.9333 263.551 54C266.351 52.0667 269.684 51.1 273.551 51.1C277.484 51.1 280.717 52.0333 283.251 53.9C285.784 55.7667 287.551 58.6333 288.551 62.5H287.151C288.484 58.9667 290.684 56.2 293.751 54.2C296.817 52.1333 300.351 51.1 304.351 51.1C308.084 51.1 311.151 51.8333 313.551 53.3C316.017 54.7667 317.851 57 319.051 60C320.251 62.9333 320.851 66.6667 320.851 71.2V95.4C320.851 97.4667 320.284 99.0667 319.151 100.2C318.084 101.267 316.551 101.8 314.551 101.8C312.551 101.8 311.017 101.267 309.951 100.2C308.884 99.0667 308.351 97.4667 308.351 95.4V71.7C308.351 67.9667 307.717 65.2333 306.451 63.5C305.251 61.7667 303.184 60.9 300.251 60.9C296.984 60.9 294.417 62.0667 292.551 64.4C290.684 66.6667 289.751 69.8333 289.751 73.9V95.4C289.751 97.4667 289.217 99.0667 288.151 100.2C287.084 101.267 285.551 101.8 283.551 101.8C281.551 101.8 279.984 101.267 278.851 100.2C277.784 99.0667 277.251 97.4667 277.251 95.4V71.7C277.251 67.9667 276.617 65.2333 275.351 63.5C274.151 61.7667 272.117 60.9 269.251 60.9C265.984 60.9 263.417 62.0667 261.551 64.4C259.684 66.6667 258.751 69.8333 258.751 73.9V95.4C258.751 99.6667 256.651 101.8 252.451 101.8ZM349.846 102C346.313 102 343.146 101.333 340.346 100C337.613 98.6 335.446 96.7333 333.846 94.4C332.313 92.0667 331.546 89.4333 331.546 86.5C331.546 82.9 332.479 80.0667 334.346 78C336.213 75.8667 339.246 74.3333 343.446 73.4C347.646 72.4667 353.279 72 360.346 72H365.346V79.2H360.446C356.313 79.2 353.013 79.4 350.546 79.8C348.079 80.2 346.313 80.9 345.246 81.9C344.246 82.8333 343.746 84.1667 343.746 85.9C343.746 88.1 344.513 89.9 346.046 91.3C347.579 92.7 349.713 93.4 352.446 93.4C354.646 93.4 356.579 92.9 358.246 91.9C359.979 90.8333 361.346 89.4 362.346 87.6C363.346 85.8 363.846 83.7333 363.846 81.4V69.9C363.846 66.5667 363.113 64.1667 361.646 62.7C360.179 61.2333 357.713 60.5 354.246 60.5C352.313 60.5 350.213 60.7333 347.946 61.2C345.746 61.6667 343.413 62.4667 340.946 63.6C339.679 64.2 338.546 64.3667 337.546 64.1C336.613 63.8333 335.879 63.3 335.346 62.5C334.813 61.6333 334.546 60.7 334.546 59.7C334.546 58.7 334.813 57.7333 335.346 56.8C335.879 55.8 336.779 55.0667 338.046 54.6C341.113 53.3333 344.046 52.4333 346.846 51.9C349.713 51.3667 352.313 51.1 354.646 51.1C359.446 51.1 363.379 51.8333 366.446 53.3C369.579 54.7667 371.913 57 373.446 60C374.979 62.9333 375.746 66.7333 375.746 71.4V95.4C375.746 97.4667 375.246 99.0667 374.246 100.2C373.246 101.267 371.813 101.8 369.946 101.8C368.079 101.8 366.613 101.267 365.546 100.2C364.546 99.0667 364.046 97.4667 364.046 95.4V90.6H364.846C364.379 92.9333 363.446 94.9667 362.046 96.7C360.713 98.3667 359.013 99.6667 356.946 100.6C354.879 101.533 352.513 102 349.846 102ZM394.634 119.8C392.634 119.8 391.1 119.267 390.034 118.2C388.967 117.133 388.434 115.567 388.434 113.5V57.6C388.434 55.5333 388.967 53.9667 390.034 52.9C391.1 51.8333 392.6 51.3 394.534 51.3C396.534 51.3 398.067 51.8333 399.134 52.9C400.2 53.9667 400.734 55.5333 400.734 57.6V65.4L399.634 62.4C400.634 59 402.667 56.2667 405.734 54.2C408.867 52.1333 412.5 51.1 416.634 51.1C420.9 51.1 424.634 52.1333 427.834 54.2C431.1 56.2667 433.634 59.2 435.434 63C437.234 66.7333 438.134 71.2333 438.134 76.5C438.134 81.7 437.234 86.2333 435.434 90.1C433.634 93.9 431.134 96.8333 427.934 98.9C424.734 100.967 420.967 102 416.634 102C412.567 102 409 101 405.934 99C402.867 96.9333 400.8 94.2667 399.734 91H400.934V113.5C400.934 115.567 400.367 117.133 399.234 118.2C398.167 119.267 396.634 119.8 394.634 119.8ZM413.134 92.5C415.6 92.5 417.767 91.9 419.634 90.7C421.5 89.5 422.934 87.7333 423.934 85.4C425 83 425.534 80.0333 425.534 76.5C425.534 71.1667 424.4 67.2 422.134 64.6C419.867 61.9333 416.867 60.6 413.134 60.6C410.667 60.6 408.5 61.2 406.634 62.4C404.767 63.5333 403.3 65.3 402.234 67.7C401.234 70.0333 400.734 72.9667 400.734 76.5C400.734 81.7667 401.867 85.7667 404.134 88.5C406.4 91.1667 409.4 92.5 413.134 92.5ZM450.295 101.8C448.695 101.8 447.395 101.433 446.395 100.7C445.461 99.9667 444.895 99 444.695 97.8C444.495 96.5333 444.728 95.1333 445.395 93.6L471.795 35.1C472.661 33.1667 473.695 31.8 474.895 31C476.161 30.1333 477.595 29.7 479.195 29.7C480.728 29.7 482.095 30.1333 483.295 31C484.561 31.8 485.628 33.1667 486.495 35.1L512.995 93.6C513.728 95.1333 513.995 96.5333 513.795 97.8C513.595 99.0667 513.028 100.067 512.095 100.8C511.161 101.467 509.928 101.8 508.395 101.8C506.528 101.8 505.061 101.367 503.995 100.5C502.995 99.5667 502.095 98.1667 501.295 96.3L494.795 81.2L500.195 84.7H457.995L463.395 81.2L456.995 96.3C456.128 98.2333 455.228 99.6333 454.295 100.5C453.361 101.367 452.028 101.8 450.295 101.8ZM478.995 44.4L464.995 77.7L462.395 74.5H495.795L493.295 77.7L479.195 44.4H478.995ZM530.409 101.8C528.342 101.8 526.742 101.233 525.609 100.1C524.542 98.9 524.009 97.2667 524.009 95.2V36.3C524.009 34.1667 524.542 32.5333 525.609 31.4C526.742 30.2667 528.342 29.7 530.409 29.7C532.475 29.7 534.042 30.2667 535.109 31.4C536.242 32.5333 536.809 34.1667 536.809 36.3V95.2C536.809 97.2667 536.275 98.9 535.209 100.1C534.142 101.233 532.542 101.8 530.409 101.8Z" fill="black"/>
<rect width="133.145" height="65.3816" transform="translate(405 107.855)" fill="#E4E7EB"/>
<path d="M423.649 154.047C422.727 154.047 422.015 153.809 421.512 153.334C421.037 152.832 420.799 152.119 420.799 151.197V127.351C420.799 126.429 421.037 125.731 421.512 125.256C422.015 124.753 422.727 124.502 423.649 124.502H433.707C435.774 124.502 437.534 124.809 438.987 125.424C440.44 126.038 441.544 126.918 442.298 128.064C443.08 129.209 443.471 130.578 443.471 132.171C443.471 133.959 442.955 135.468 441.921 136.697C440.887 137.926 439.476 138.75 437.688 139.17V138.541C439.756 138.848 441.362 139.631 442.508 140.888C443.653 142.145 444.226 143.779 444.226 145.791C444.226 148.417 443.332 150.457 441.544 151.91C439.784 153.334 437.325 154.047 434.168 154.047H423.649ZM425.954 149.982H433.497C435.397 149.982 436.794 149.619 437.688 148.892C438.582 148.138 439.029 147.02 439.029 145.54C439.029 144.031 438.582 142.913 437.688 142.187C436.794 141.461 435.397 141.097 433.497 141.097H425.954V149.982ZM425.954 137.032H432.785C434.629 137.032 435.998 136.683 436.892 135.985C437.814 135.258 438.275 134.196 438.275 132.8C438.275 131.403 437.814 130.355 436.892 129.656C435.998 128.93 434.629 128.567 432.785 128.567H425.954V137.032ZM452.502 154.047C451.58 154.047 450.867 153.809 450.364 153.334C449.889 152.832 449.652 152.119 449.652 151.197V127.351C449.652 126.429 449.889 125.731 450.364 125.256C450.867 124.753 451.58 124.502 452.502 124.502H467.463C468.161 124.502 468.692 124.683 469.055 125.047C469.446 125.41 469.642 125.927 469.642 126.597C469.642 127.296 469.446 127.84 469.055 128.232C468.692 128.595 468.161 128.776 467.463 128.776H454.807V136.906H466.541C467.267 136.906 467.812 137.088 468.175 137.451C468.538 137.815 468.72 138.345 468.72 139.044C468.72 139.742 468.538 140.273 468.175 140.636C467.812 141 467.267 141.181 466.541 141.181H454.807V149.772H467.463C468.161 149.772 468.692 149.954 469.055 150.317C469.446 150.68 469.642 151.211 469.642 151.91C469.642 152.608 469.446 153.139 469.055 153.502C468.692 153.865 468.161 154.047 467.463 154.047H452.502ZM484.259 154.382C483.393 154.382 482.723 154.145 482.248 153.67C481.801 153.167 481.577 152.482 481.577 151.616V128.986H473.405C472.679 128.986 472.106 128.79 471.687 128.399C471.296 127.98 471.1 127.421 471.1 126.723C471.1 125.996 471.296 125.452 471.687 125.088C472.106 124.697 472.679 124.502 473.405 124.502H495.114C495.84 124.502 496.399 124.697 496.79 125.088C497.209 125.452 497.418 125.996 497.418 126.723C497.418 127.421 497.209 127.98 496.79 128.399C496.399 128.79 495.84 128.986 495.114 128.986H486.941V151.616C486.941 152.482 486.718 153.167 486.271 153.67C485.824 154.145 485.153 154.382 484.259 154.382ZM497.501 154.382C496.83 154.382 496.286 154.228 495.867 153.921C495.475 153.614 495.238 153.209 495.154 152.706C495.07 152.175 495.168 151.588 495.447 150.946L506.511 126.429C506.874 125.619 507.307 125.047 507.81 124.711C508.341 124.348 508.942 124.166 509.612 124.166C510.255 124.166 510.828 124.348 511.331 124.711C511.861 125.047 512.308 125.619 512.672 126.429L523.777 150.946C524.085 151.588 524.196 152.175 524.113 152.706C524.029 153.237 523.791 153.656 523.4 153.963C523.009 154.242 522.492 154.382 521.85 154.382C521.067 154.382 520.453 154.201 520.006 153.837C519.587 153.446 519.209 152.859 518.874 152.077L516.15 145.749L518.413 147.216H500.728L502.991 145.749L500.309 152.077C499.946 152.887 499.568 153.474 499.177 153.837C498.786 154.201 498.227 154.382 497.501 154.382ZM509.529 130.327L503.661 144.282L502.572 142.941H516.569L515.521 144.282L509.612 130.327H509.529Z" fill="#374151"/>
</svg>
